<svg width="400" height="300" xmlns="http://www.w3.org/2000/svg">
  <defs>
    <linearGradient id="evGrad" x1="0%" y1="0%" x2="100%" y2="100%">
      <stop offset="0%" style="stop-color:#10b981;stop-opacity:1" />
      <stop offset="100%" style="stop-color:#059669;stop-opacity:1" />
    </linearGradient>
  </defs>
  <rect width="400" height="300" fill="url(#evGrad)" rx="20"/>
  
  <!-- Charging station -->
  <rect x="150" y="80" width="100" height="140" fill="#ffffff" rx="10"/>
  <rect x="160" y="90" width="80" height="100" fill="#1f2937" rx="5"/>
  
  <!-- Screen -->
  <rect x="170" y="100" width="60" height="40" fill="#3b82f6" rx="3"/>
  <text x="200" y="115" font-family="Arial, sans-serif" font-size="10" text-anchor="middle" fill="#ffffff">
    CHARGING
  </text>
  <text x="200" y="130" font-family="Arial, sans-serif" font-size="12" font-weight="bold" text-anchor="middle" fill="#ffffff">
    85%
  </text>
  
  <!-- Charging cable -->
  <circle cx="200" cy="160" r="15" fill="#ef4444"/>
  <path d="M200 175 Q220 185 240 200 Q250 210 260 230" stroke="#1f2937" stroke-width="8" fill="none"/>
  
  <!-- Car outline -->
  <ellipse cx="320" cy="230" rx="60" ry="25" fill="#ffffff" opacity="0.8"/>
  <rect x="270" y="215" width="100" height="20" fill="#6b7280" rx="10"/>
  
  <!-- Charging port on car -->}
  <circle cx="270" cy="230" r="8" fill="#ef4444"/>
  
  <!-- Electric symbols -->
  <g fill="#fbbf24" opacity="0.8">
    <polygon points="100,120 110,100 105,110 115,110 105,130 110,120"/>
    <polygon points="60,160 70,140 65,150 75,150 65,170 70,160"/>
    <polygon points="340,100 350,80 345,90 355,90 345,110 350,100"/>
  </g>
  
  <!-- Power indicator -->
  <rect x="40" y="200" width="80" height="8" fill="#ffffff" opacity="0.6" rx="4"/>
  <rect x="40" y="200" width="60" height="8" fill="#22c55e" rx="4"/>
  
  <text x="200" y="280" font-family="Arial, sans-serif" font-size="20" font-weight="bold" text-anchor="middle" fill="#ffffff">
    EV Charging Points
  </text>
</svg>
