<svg xmlns="http://www.w3.org/2000/svg" viewBox="0 0 200 200" fill="none">
  <!-- Background circle -->
  <circle cx="100" cy="100" r="95" fill="#fef3c7" stroke="#f59e0b" stroke-width="2"/>
  
  <!-- Heat pump unit -->
  <rect x="60" y="80" width="80" height="50" rx="8" fill="#1f2937" stroke="#374151" stroke-width="2"/>
  
  <!-- Control panel -->
  <rect x="65" y="85" width="25" height="15" rx="2" fill="#4b5563"/>
  <rect x="67" y="87" width="21" height="6" rx="1" fill="#000000"/>
  <text x="77.5" y="92" text-anchor="middle" font-family="monospace" font-size="5" fill="#00ff00">22°C</text>
  
  <!-- Fan grille -->
  <circle cx="115" cy="105" r="18" fill="#374151" stroke="#4b5563" stroke-width="1"/>
  <circle cx="115" cy="105" r="15" fill="none" stroke="#6b7280" stroke-width="1"/>
  <circle cx="115" cy="105" r="12" fill="none" stroke="#6b7280" stroke-width="1"/>
  <circle cx="115" cy="105" r="9" fill="none" stroke="#6b7280" stroke-width="1"/>
  <circle cx="115" cy="105" r="6" fill="none" stroke="#6b7280" stroke-width="1"/>
  
  <!-- Fan blades -->
  <g stroke="#9ca3af" stroke-width="2" transform="translate(115, 105)">
    <path d="M-8 0 L8 0 M0 -8 L0 8 M-6 -6 L6 6 M-6 6 L6 -6"/>
  </g>
  
  <!-- Radiator -->
  <g transform="translate(30, 140)">
    <rect x="0" y="0" width="140" height="30" rx="4" fill="#e5e7eb" stroke="#9ca3af" stroke-width="1"/>
    <!-- Radiator fins -->
    <g stroke="#9ca3af" stroke-width="1">
      <line x1="10" y1="5" x2="10" y2="25"/>
      <line x1="20" y1="5" x2="20" y2="25"/>
      <line x1="30" y1="5" x2="30" y2="25"/>
      <line x1="40" y1="5" x2="40" y2="25"/>
      <line x1="50" y1="5" x2="50" y2="25"/>
      <line x1="60" y1="5" x2="60" y2="25"/>
      <line x1="70" y1="5" x2="70" y2="25"/>
      <line x1="80" y1="5" x2="80" y2="25"/>
      <line x1="90" y1="5" x2="90" y2="25"/>
      <line x1="100" y1="5" x2="100" y2="25"/>
      <line x1="110" y1="5" x2="110" y2="25"/>
      <line x1="120" y1="5" x2="120" y2="25"/>
      <line x1="130" y1="5" x2="130" y2="25"/>
    </g>
    
    <!-- Pipes connecting to radiator -->
    <rect x="0" y="-10" width="6" height="10" fill="#9ca3af"/>
    <rect x="134" y="-10" width="6" height="10" fill="#9ca3af"/>
  </g>
  
  <!-- Connecting pipes -->
  <g stroke="#9ca3af" stroke-width="4" stroke-linecap="round">
    <path d="M100 130 L100 140"/>
    <path d="M33 140 L33 130 L60 130 L60 110"/>
    <path d="M167 140 L167 130 L140 130 L140 110"/>
  </g>
  
  <!-- Heat waves from radiator -->
  <g stroke="#f59e0b" stroke-width="2" fill="none" opacity="0.7">
    <path d="M50 135 Q52 132, 50 129 Q48 126, 50 123"/>
    <path d="M70 135 Q72 132, 70 129 Q68 126, 70 123"/>
    <path d="M90 135 Q92 132, 90 129 Q88 126, 90 123"/>
    <path d="M110 135 Q112 132, 110 129 Q108 126, 110 123"/>
    <path d="M130 135 Q132 132, 130 129 Q128 126, 130 123"/>
    <path d="M150 135 Q152 132, 150 129 Q148 126, 150 123"/>
  </g>
  
  <!-- Temperature indicator -->
  <g transform="translate(160, 30)">
    <!-- Thermometer -->
    <rect x="5" y="5" width="6" height="35" rx="3" fill="#dc2626"/>
    <circle cx="8" cy="42" r="5" fill="#dc2626"/>
    <rect x="6" y="20" width="4" height="20" fill="#fca5a5"/>
    
    <!-- Temperature scale -->
    <g stroke="#4b5563" stroke-width="0.5">
      <line x1="12" y1="10" x2="15" y2="10"/>
      <line x1="12" y1="15" x2="14" y2="15"/>
      <line x1="12" y1="20" x2="15" y2="20"/>
      <line x1="12" y1="25" x2="14" y2="25"/>
      <line x1="12" y1="30" x2="15" y2="30"/>
      <line x1="12" y1="35" x2="14" y2="35"/>
    </g>
    
    <text x="20" y="15" font-family="Arial, sans-serif" font-size="8" fill="#4b5563">HOT</text>
  </g>
  
  <!-- Efficiency badge -->
  <g transform="translate(25, 25)">
    <circle cx="15" cy="15" r="18" fill="#16a34a" opacity="0.9"/>
    <text x="15" y="12" text-anchor="middle" font-family="Arial, sans-serif" font-size="7" font-weight="bold" fill="white">EFFICIENT</text>
    <text x="15" y="20" text-anchor="middle" font-family="Arial, sans-serif" font-size="6" fill="white">HEATING</text>
  </g>
</svg>
