<svg width="400" height="300" xmlns="http://www.w3.org/2000/svg">
  <defs>
    <linearGradient id="grad5" x1="0%" y1="0%" x2="100%" y2="100%">
      <stop offset="0%" style="stop-color:#eab308;stop-opacity:1" />
      <stop offset="100%" style="stop-color:#ca8a04;stop-opacity:1" />
    </linearGradient>
  </defs>
  <rect width="400" height="300" fill="url(#grad5)" rx="20"/>
  
  <!-- Bird silhouette -->
  <path d="M200,100 Q220,90 240,110 Q220,120 200,115 Q180,120 160,110 Q180,90 200,100" fill="#ffffff" opacity="0.4"/>
  <circle cx="185" cy="105" r="3" fill="#ca8a04"/>
  
  <!-- Nest -->
  <ellipse cx="200" cy="160" rx="40" ry="15" fill="#ffffff" opacity="0.3"/>
  <circle cx="190" cy="155" r="8" fill="#ffffff" opacity="0.4"/>
  <circle cx="210" cy="157" r="6" fill="#ffffff" opacity="0.35"/>
  
  <!-- Paw prints -->
  <circle cx="120" cy="200" r="4" fill="#ffffff" opacity="0.3"/>
  <circle cx="115" cy="195" r="2" fill="#ffffff" opacity="0.3"/>
  <circle cx="125" cy="195" r="2" fill="#ffffff" opacity="0.3"/>
  
  <circle cx="280" cy="180" r="4" fill="#ffffff" opacity="0.3"/>
  <circle cx="275" cy="175" r="2" fill="#ffffff" opacity="0.3"/>
  <circle cx="285" cy="175" r="2" fill="#ffffff" opacity="0.3"/>
  
  <text x="200" y="220" font-family="Arial, sans-serif" font-size="22" font-weight="bold" text-anchor="middle" fill="#ffffff">
    Cuan Wildlife
  </text>
  <text x="200" y="245" font-family="Arial, sans-serif" font-size="18" text-anchor="middle" fill="#ffffff">
    Centre
  </text>
</svg>
